<?xml version="1.0" encoding="UTF-8"?>
<svg xmlns="http://www.w3.org/2000/svg" viewBox="0 0 260 300" width="260" height="300">
  <rect width="260" height="300" fill="#fefcf7" rx="8"/>
  <!-- Hexagram name -->
  <text x="130" y="28" text-anchor="middle" font-size="18" font-weight="bold" fill="#5a4020" font-family="serif">雷水解</text>
  <!-- Yao lines -->
  <rect x="50" y="45" width="63" height="8" rx="3" fill="#2c3e50"/>
  <rect x="147" y="45" width="63" height="8" rx="3" fill="#2c3e50"/>
  <text x="224" y="54" font-size="13" fill="#666" font-family="sans-serif">上六</text>
  <rect x="50" y="81" width="63" height="8" rx="3" fill="#2c3e50"/>
  <rect x="147" y="81" width="63" height="8" rx="3" fill="#2c3e50"/>
  <text x="224" y="90" font-size="13" fill="#666" font-family="sans-serif">六五</text>
  <rect x="50" y="117" width="160" height="8" rx="3" fill="#c0392b"/>
  <text x="224" y="126" font-size="13" fill="#666" font-family="sans-serif">九四</text>
  <rect x="50" y="153" width="63" height="8" rx="3" fill="#2c3e50"/>
  <rect x="147" y="153" width="63" height="8" rx="3" fill="#2c3e50"/>
  <text x="224" y="162" font-size="13" fill="#666" font-family="sans-serif">六三</text>
  <rect x="50" y="189" width="160" height="8" rx="3" fill="#c0392b"/>
  <text x="224" y="198" font-size="13" fill="#666" font-family="sans-serif">九二</text>
  <rect x="50" y="225" width="63" height="8" rx="3" fill="#2c3e50"/>
  <rect x="147" y="225" width="63" height="8" rx="3" fill="#2c3e50"/>
  <text x="224" y="234" font-size="13" fill="#666" font-family="sans-serif">初六</text>

  <!-- Hexagram number -->
  <text x="130" y="292" text-anchor="middle" font-size="14" fill="#8b6914" font-family="serif">第40卦</text>
</svg>